<?xml version="1.0" standalone="no"?>
<!DOCTYPE svg PUBLIC "-//W3C//DTD SVG 20010904//EN"
 "http://www.w3.org/TR/2001/REC-SVG-20010904/DTD/svg10.dtd">
<svg version="1.0" xmlns="http://www.w3.org/2000/svg"
 width="128.000000pt" height="128.000000pt" viewBox="0 0 128.000000 128.000000"
 preserveAspectRatio="xMidYMid meet">
<metadata>
Created by potrace 1.11, written by Peter Selinger 2001-2013
</metadata>
<g transform="translate(0.000000,128.000000) scale(0.100000,-0.100000)"
fill="#000000" stroke="none">
<path d="M549 1250 c-222 -35 -416 -195 -489 -403 -80 -228 -25 -470 146 -641
243 -243 625 -243 868 0 185 185 234 452 126 689 -111 246 -387 396 -651 355z
m-43 -209 c-60 -117 -64 -212 -11 -247 35 -23 255 -23 290 0 52 34 51 115 -3
231 -36 76 -38 82 -17 65 8 -7 25 -10 39 -6 19 5 28 1 37 -16 10 -19 12 -20
21 -4 11 20 28 12 28 -15 0 -20 24 -26 35 -9 12 19 22 1 17 -30 -4 -29 -3 -31
22 -24 29 7 32 0 11 -36 -21 -37 -18 -43 18 -36 l32 6 -33 -31 c-26 -23 -31
-33 -22 -44 9 -10 5 -15 -20 -20 -16 -4 -35 -15 -40 -26 -6 -10 -16 -19 -23
-19 -7 0 -22 -7 -33 -15 -19 -15 -19 -15 0 -30 19 -14 18 -15 -13 -15 -24 0
-34 -5 -38 -20 -7 -24 -8 -25 -41 -2 -43 30 -52 34 -52 24 0 -10 73 -52 89
-52 5 0 11 9 14 20 3 14 14 20 31 20 14 0 26 -5 26 -10 0 -16 -80 -50 -117
-50 -27 0 -33 -4 -33 -22 0 -13 -5 -30 -10 -38 -7 -11 -10 -6 -10 21 0 19 5
40 12 47 13 13 5 27 -11 17 -7 -4 -11 -46 -11 -106 0 -54 -3 -98 -7 -98 -19 3
-33 -2 -33 -12 0 -6 7 -8 16 -5 8 3 12 2 9 -4 -9 -14 -59 -12 -73 2 -7 7 -12
38 -12 69 0 41 -4 58 -15 63 -9 3 -15 18 -15 36 0 40 18 39 23 -2 l4 -33 1 36
c1 22 -4 42 -13 49 -12 10 -15 10 -15 -4 0 -22 -54 -21 -107 4 -48 21 -56 40
-17 40 17 0 28 -6 31 -20 3 -11 9 -20 14 -20 16 0 89 42 89 52 0 10 -9 6 -52
-24 -33 -23 -34 -22 -41 2 -4 15 -14 20 -38 20 -31 0 -32 1 -13 15 19 15 19
15 0 30 -11 8 -26 15 -33 15 -7 0 -17 9 -23 19 -5 11 -24 22 -40 26 -25 5 -29
10 -20 20 9 11 4 21 -22 44 l-33 31 33 -6 c35 -7 38 -1 17 36 -20 35 -18 41
10 34 23 -6 25 -3 25 26 0 27 3 30 20 25 16 -5 22 0 31 22 10 26 12 27 23 10
13 -16 14 -16 28 5 12 19 18 20 30 11 12 -10 19 -10 34 1 10 8 20 13 22 11 2
-2 -8 -26 -22 -54z m-111 -728 c26 -56 31 -73 19 -73 -8 0 -17 7 -20 15 -4 10
-20 15 -49 15 -29 0 -45 -5 -49 -15 -3 -8 -12 -15 -21 -15 -11 0 -6 17 22 75
21 42 43 74 50 73 7 -2 28 -36 48 -75z m203 61 c25 -17 30 -62 7 -70 -20 -8
-19 -23 2 -46 14 -16 14 -18 0 -18 -8 0 -24 11 -35 25 -11 14 -27 25 -36 25
-10 0 -16 -9 -16 -25 0 -16 -6 -25 -15 -25 -12 0 -15 14 -15 68 0 38 3 72 7
75 12 13 79 7 101 -9z m212 1 c-3 -5 -13 -8 -22 -7 -16 3 -18 -5 -18 -62 0
-51 -3 -66 -15 -66 -10 0 -15 16 -17 63 -3 57 -5 62 -25 61 -14 -1 -23 4 -23
13 0 11 14 13 63 11 36 -2 60 -7 57 -13z m184 9 c26 -10 18 -27 -9 -20 -30 8
-60 -6 -75 -35 -9 -16 -8 -26 5 -46 15 -22 22 -25 56 -20 40 5 62 -6 33 -17
-33 -13 -84 -6 -104 14 -58 58 16 154 94 124z"/>
<path d="M602 468 c5 -15 28 -23 28 -10 0 5 -7 13 -16 16 -10 4 -14 1 -12 -6z"/>
<path d="M330 331 c-16 -32 -12 -41 20 -41 l31 0 -16 30 c-18 35 -21 36 -35
11z"/>
<path d="M520 335 c0 -22 4 -25 34 -25 22 0 36 6 40 16 9 24 -2 34 -40 34 -30
0 -34 -3 -34 -25z"/>
</g>
</svg>
